{"title":"Le Cave Se Rebiffe - Fr -Gabin-Audiard.avi","uid":7844437,"size":670586880,"categoryP":"video","categoryS":"movies","magnet":"?xt=urn:btih:5af3552e9eafd0e2a87be4b21312fe03436c14d7&amp;dn=Le+Cave+Se+Rebiffe+-+Fr+-Gabin-Audiard.avi&amp;tr=udp%3A%2F%2Ftracker.openbittorrent.com%3A80&amp;tr=udp%3A%2F%2Fopen.demonii.com%3A1337&amp;tr=udp%3A%2F%2Ftracker.coppersurfer.tk%3A6969&amp;tr=udp%3A%2F%2Fexodus.desync.com%3A6969","seeders":2,"leechers":0,"uploader":"Bonie75","files":-1,"time":1353432649,"description":"FrancaisAudiardLe Cave Se Rebiffe - Fr -Gabin-Audiard.avi\nFormat                                   : AVI\nFormat/Info                              : Audio Video Interleave\nFile size                                : 640 MiB\nDuration                                 : 1h 33mn\nOverall bit rate                         : 958 Kbps\nWriting library                          : VirtualDub build 13870/release\n\nVideo\nID                                       : 0\nFormat                                   : MPEG-4 Visual\nFormat settings, BVOP                    : Yes\nFormat settings, QPel                    : No\nFormat settings, GMC                     : No warppoints\nFormat settings, Matrix                  : Default (H.263)\nCodec ID                                 : DIVX\nCodec ID/Info                            : Project Mayo\nCodec ID/Hint                            : DivX 4\nDuration                                 : 1h 33mn\nBit rate                                 : 886 Kbps\nWidth                                    : 584 pixels\nHeight                                   : 360 pixels\nDisplay aspect ratio                     : 1.622\nFrame rate                               : 25.000 fps\nColor space                              : YUV\nChroma subsampling                       : 4:2:0\nBit depth                                : 8 bits\nScan type                                : Progressive\nCompression mode                         : Lossy\nBits/(Pixel*Frame)                       : 0.169\nStream size                              : 591 MiB (92%)\n\nAudio\nID                                       : 1\nFormat                                   : WMA\nFormat version                           : Version 2\nCodec ID                                 : 161\nCodec ID/Info                            : Windows Media Audio\nDuration                                 : 1h 33mn\nBit rate                                 : 64.0 Kbps\nChannel(s)                               : 2 channels\nSampling rate                            : 32.0 KHz\nBit depth                                : 16 bits\nStream size                              : 42.7 MiB (7%)\nInterleave, duration                     : 64 ms (1.60 video frames)\nInterleave, preload duration             : 448 ms\n","torrent":{"xt":"urn:btih:5af3552e9eafd0e2a87be4b21312fe03436c14d7","amp;dn":"Le+Cave+Se+Rebiffe+-+Fr+-Gabin-Audiard.avi","amp;tr":["udp%3A%2F%2Ftracker.openbittorrent.com%3A80","udp%3A%2F%2Fopen.demonii.com%3A1337","udp%3A%2F%2Ftracker.coppersurfer.tk%3A6969","udp%3A%2F%2Fexodus.desync.com%3A6969"],"infoHash":"5af3552e9eafd0e2a87be4b21312fe03436c14d7","infoHashBuffer":{"type":"Buffer","data":[90,243,85,46,158,175,208,226,168,123,228,178,19,18,254,3,67,108,20,215]},"announce":[],"urlList":[]}}